<?xml version="1.0" encoding="utf-8"?>
<!-- Generator: Adobe Illustrator 26.0.3, SVG Export Plug-In . SVG Version: 6.00 Build 0)  -->
<svg version="1.0" id="katman_1" xmlns="http://www.w3.org/2000/svg" xmlns:xlink="http://www.w3.org/1999/xlink" x="0px" y="0px"
	 viewBox="0 0 600 450" style="enable-background:new 0 0 600 450;" xml:space="preserve">
<style type="text/css">
	.st0{fill:#84BC26;}
</style>
<path class="st0" d="M126.4,199.3c-0.9-0.5-1.4-1.5-1.4-2.5c-1.4-14.1-13.3-25.5-27.7-25.5s-26.6,11-27.7,25.5c-0.1,1-0.6,2-1.4,2.5
	c-7.1,5.1-11.9,13.3-11.9,22.6c0,12.7,8.8,23.8,20.7,26.9c2,0.6,4.2,0.8,4.8,0.3c1.4-0.8,3.4-7.9,2.5-9.3c-0.6-0.9-2.3-1.7-4.5-2.3
	c-7.1-2-12.2-8.2-12.2-15.8c0-4.2,1.7-7.9,4.2-11c1.1-1.4,2.6-2.6,4.2-3.4c3.1-1.7,4.8-4.8,4.8-8.2c0-1.7,0.3-3.4,0.8-5.1
	c2.3-6.5,8.2-11.3,15.6-11.3c7.4,0,13.3,4.8,15.6,11.3c0.6,1.7,0.8,3.4,0.8,5.1c0,3.4,1.7,6.5,4.8,8.2c1.7,0.8,2.8,2,4.2,3.4
	c2.7,3,4.2,7,4.2,11c0,9.1-7.3,16.4-16.4,16.4c-10.5,0-18.7,8.5-18.7,19v10.8c0,2,0.3,4.2,0.8,4.8c1.1,1.1,8.5,1.1,9.6,0
	c0.6-0.6,0.9-2.8,0.9-4.8v-11c0-4,3.4-7.4,7.4-7.4c15.3,0,27.7-12.5,27.7-27.7C138.2,212.6,133.4,204.4,126.4,199.3z"/>
<path d="M274.6,207.5h-9.9c-0.8,0-1.2,0.4-1.2,1.2v18.9c0,10.3-3.5,15.4-11,15.4c-2.8,0-5.1-0.8-6.7-2.8c-1.6-2-2.4-4.3-2.4-7.5
	v-23.7c0-0.8-0.4-1.2-1.2-1.2h-9.9c-0.8,0-1.2,0.4-1.2,1.2v26.4c0,5.5,1.6,10.3,5.1,13.8c3.2,3.5,7.5,5.1,13,5.1s9.9-1.6,13.4-4.7
	c0.4-0.4,0.8,0,0.8,0.4v1.6c0,0.8,0.4,1.2,1.2,1.2h9.9c0.8,0,1.2-0.4,1.2-1.2v-43.4C275.8,207.9,275.4,207.5,274.6,207.5
	L274.6,207.5z M342,206c-7.1,0-12.6,2.4-16.6,7.5c-3.5-4.7-8.3-7.5-15-7.5c-5.1,0-9.5,1.6-12.6,4.3c-0.4,0.4-0.8,0-0.8-0.4v-1.6
	c0-0.8-0.4-1.2-1.2-1.2h-9.5c-0.8,0-1.2,0.4-1.2,1.2v43c0,0.8,0.4,1.2,1.2,1.2h9.9c0.8,0,1.2-0.4,1.2-1.2v-20.5
	c0-4.7,0.8-7.9,2.8-10.3c2-2.4,4.3-3.5,7.5-3.5c2.4,0,4.7,0.8,6.3,2.8c1.6,1.6,2.4,3.9,2.4,7.1v24.4c0,0.8,0.4,1.2,1.2,1.2h9.9
	c0.8,0,1.2-0.4,1.2-1.2v-20.5c0-4.7,0.8-7.9,2.8-10.3c2-2.4,4.3-3.5,7.5-3.5c2.4,0,4.7,0.8,6.3,2.8c1.6,1.6,2.4,3.9,2.4,7.1v24.4
	c0,0.8,0.4,1.2,1.2,1.2h9.5c0.8,0,1.2-0.4,1.2-1.2v-27.2c0-5.5-1.6-9.9-5.1-13C350.7,207.9,346.8,206,342,206L342,206z M399.6,241.8
	c-0.4-0.8-0.8-0.8-1.6-0.8c-2.4,1.2-4.3,1.6-6.3,1.6c-4.3,0-6.7-2.8-6.7-7.9v-16.6c0-0.8,0.4-1.2,1.2-1.2h12.6
	c0.8,0,1.2-0.4,1.2-1.2v-7.5c0-0.8-0.4-1.2-1.2-1.2h-12.6c-0.8,0-1.2-0.4-1.2-1.2v-11.4c0-0.8-0.4-1.2-1.2-1.2H374
	c-0.8,0-1.2,0.4-1.2,1.2V206c0,0.8-0.4,1.2-1.2,1.2h-7.5c-0.8,0-1.2,0.4-1.2,1.2v7.5c0,0.8,0.4,1.2,1.2,1.2h7.5
	c0.8,0,1.2,0.4,1.2,1.2v17.7c0,5.9,1.6,10.6,4.7,13.4c3.2,3.2,7.5,4.3,13,4.3c3.5,0,7.1-0.8,11-2.8c0.4-0.4,0.8-0.8,0.4-1.2
	L399.6,241.8L399.6,241.8z M441,206.7h-2.4c-6.3,0-11,2.4-15,7.5c-0.4,0.4-0.8,0-0.8-0.4v-5.1c0-0.8-0.8-1.6-1.6-1.6h-9.1
	c-0.8,0-1.2,0.4-1.2,1.2v43c0,0.8,0.4,1.2,1.2,1.2h9.9c0.8,0,1.2-0.4,1.2-1.2v-13.4c0-13,5.5-19.3,16.2-19.3h1.6
	c0.4,0,1.2-0.4,1.2-1.2l0.4-9.5C442.2,207.5,441.8,207.1,441,206.7L441,206.7z M469,206c-6.7,0-12.2,2.4-16.6,6.7
	c-4.3,4.3-6.7,10.3-6.7,17.4c0,7.1,2.4,12.6,6.7,17c4.3,4.3,9.9,6.7,16.6,6.7c5.1,0,9.5-1.2,13.4-3.5c3.5-2,5.9-5.1,7.9-9.1
	c0.4-0.8,0-1.2-0.8-1.6l-8.7-2c-0.4,0-0.8,0-1.2,0.4c-2.4,3.5-5.9,5.5-10.6,5.5c-2.8,0-5.1-0.8-7.1-2.8c-2-1.6-3.2-3.9-3.9-7.1
	c0-0.4,0-0.8,0.4-0.8h33.5v-3.9c-0.4-6.7-2.8-12.2-7.1-16.6C480.4,208.3,475.3,206,469,206L469,206z M478.9,224.9h-20.1
	c-0.4,0-0.8-0.4-0.4-0.8c0.8-2.4,2-3.9,3.9-5.5c2-1.6,4.3-2,6.7-2c2.4,0,4.7,0.8,6.7,2c1.6,1.2,3.2,3.2,3.9,5.5
	C479.7,224.5,479.3,224.9,478.9,224.9z M510.4,233.2h33.5v-3.9c-0.4-6.7-2.8-12.2-7.1-16.6c-4.3-4.3-9.9-6.3-15.8-6.3
	c-6.7,0-12.2,2.4-16.6,6.7c-4.3,4.3-6.7,10.3-6.7,17.4c0,7.1,2.4,12.6,6.7,17c4.3,4.3,9.9,6.7,16.6,6.7c5.1,0,9.5-1.2,13.4-3.5
	c3.5-2,5.9-5.1,7.9-9.1c0.4-0.8,0-1.2-0.8-1.6l-8.7-2c-0.4,0-0.8,0-1.2,0.4c-2.4,3.5-5.9,5.5-10.6,5.5c-2.8,0-5.1-0.8-7.1-2.8
	c-2-1.6-3.2-3.9-3.9-7.1C509.6,233.6,510,233.2,510.4,233.2L510.4,233.2z M510.4,224.1c0.8-2.4,2-3.9,3.9-5.5c2-1.6,4.3-2,6.7-2
	c2.4,0,4.7,0.8,6.7,2c1.6,1.2,3.2,3.2,3.9,5.5c0,0.4,0,0.8-0.4,0.8h-20.1C510.4,224.9,510,224.5,510.4,224.1z M222.9,217h-31.2
	c-0.8,0-1.2,0.4-1.2,1.2v9.1c0,0.8,0.4,1.2,1.2,1.2h19.7c0.4,0,0.8,0.4,0.4,0.8c-1.2,3.9-3.2,7.1-6.3,9.5c-3.2,2.4-7.1,3.5-11.8,3.5
	c-5.5,0-10.3-2-14.2-5.9c-3.9-3.9-5.9-8.7-5.9-14.2c0-5.5,2-10.3,5.5-14.2c3.5-3.9,8.7-5.9,14.2-5.9c7.1,0,12.6,2.8,16.6,7.9
	c0.4,0.4,0.8,0.4,1.6,0.4l8.3-5.5c0.4-0.4,0.8-1.2,0.4-1.6c-2-3.3-4.9-6-8.3-7.9c-5.1-3.2-11.4-4.7-17.7-4.7
	c-9.1,0-16.6,3.2-22.5,9.1c-6.3,5.9-9.1,13.4-9.1,22.5c0,9.1,3.2,16.6,9.5,22.5c6.3,5.9,13.8,9.1,22.9,9.1c9.1,0,16.2-3.2,22.1-9.1
	c5.9-5.9,8.7-13.4,8.7-22.5v-4.3C224.1,217.8,223.7,217,222.9,217L222.9,217z"/>
</svg>
